<svg width="512" height="512" viewBox="0 0 512 512" xmlns="http://www.w3.org/2000/svg">
  <defs>
    <linearGradient id="bg" x1="0" y1="0" x2="1" y2="1">
      <stop offset="0" stop-color="#6d28d9"/>
      <stop offset="1" stop-color="#2563eb"/>
    </linearGradient>
  </defs>
  <rect width="512" height="512" rx="116" fill="url(#bg)"/>
  <!-- Libro abierto -->
  <path d="M256 168 C 214 144, 158 140, 118 152 L118 364 C 158 352, 214 356, 256 380 Z"
        fill="#ffffff"/>
  <path d="M256 168 C 298 144, 354 140, 394 152 L394 364 C 354 352, 298 356, 256 380 Z"
        fill="#ffffff" opacity="0.9"/>
  <!-- Lomo -->
  <rect x="249" y="168" width="14" height="212" rx="7" fill="#ffffff" opacity="0.55"/>
  <!-- Chispa de aventura -->
  <path d="M398 92 l12 30 30 12 -30 12 -12 30 -12 -30 -30 -12 30 -12 z" fill="#f59e0b"/>
</svg>
